<svg width="20" height="16" viewBox="0 0 20 16" fill="none" xmlns="http://www.w3.org/2000/svg">
<path fill-rule="evenodd" clip-rule="evenodd" d="M1.97821 7.25075C1.86728 7.40621 1.78895 7.63536 1.78895 7.89669C1.78895 8.15804 1.86728 8.38718 1.97821 8.54265C2.69283 9.50151 3.84592 10.8893 5.27188 12.0306C6.7114 13.1827 8.33428 14.0084 10.0019 14.0084C11.6694 14.0084 13.2923 13.1827 14.7318 12.0306C16.1578 10.8893 17.3108 9.50152 18.0254 8.54267C18.1364 8.38721 18.2148 8.15805 18.2148 7.89669C18.2148 7.63535 18.1364 7.40619 18.0254 7.25072C17.3108 6.29186 16.1578 4.90413 14.7318 3.76282C13.2923 2.61064 11.6694 1.78505 10.0019 1.78505C8.33428 1.78505 6.7114 2.61064 5.27188 3.76282C3.84592 4.90414 2.69283 6.29189 1.97821 7.25075ZM4.15644 2.3692C5.74147 1.10055 7.75366 0 10.0019 0C12.2501 0 14.2622 1.10055 15.8472 2.3692C17.4429 3.64637 18.702 5.17075 19.4615 6.19037L19.4689 6.20033C19.8219 6.68832 19.9998 7.2935 19.9998 7.89669C19.9998 8.49988 19.8219 9.10503 19.4689 9.59302L19.4616 9.60307C18.7022 10.6227 17.4429 12.147 15.8472 13.4242C14.2622 14.6929 12.2501 15.7934 10.0019 15.7934C7.75366 15.7934 5.74147 14.6929 4.15644 13.4242C2.56075 12.147 1.30162 10.6226 0.542219 9.60301L0.53481 9.59307C0.181801 9.10509 0.00390625 8.49988 0.00390625 7.89669C0.00390625 7.2935 0.181871 6.68836 0.53488 6.20037L0.542149 6.19033C1.30155 5.17071 2.56075 3.64637 4.15644 2.3692ZM10.0016 4.3263C8.02986 4.3263 6.43147 5.92469 6.43147 7.89639C6.43147 9.8681 8.02986 11.4665 10.0016 11.4665C11.9733 11.4665 13.5717 9.8681 13.5717 7.89639C13.5717 5.92469 11.9733 4.3263 10.0016 4.3263Z" fill="#EFEFEF"/>
</svg>
