<svg width="59" height="59" viewBox="0 0 59 59" fill="none" xmlns="http://www.w3.org/2000/svg">
<g clip-path="url(#clip0_1458_7)">
<path d="M8.78 17.56C13.6291 17.56 17.56 13.6291 17.56 8.78C17.56 3.93094 13.6291 0 8.78 0C3.93094 0 0 3.93094 0 8.78C0 13.6291 3.93094 17.56 8.78 17.56Z" fill="#384EF8"/>
<path d="M8.78 38.03C13.6291 38.03 17.56 34.099 17.56 29.25C17.56 24.4009 13.6291 20.47 8.78 20.47C3.93094 20.47 0 24.4009 0 29.25C0 34.099 3.93094 38.03 8.78 38.03Z" fill="#384EF8"/>
<path d="M8.78 58.4899C13.6291 58.4899 17.56 54.559 17.56 49.7099C17.56 44.8609 13.6291 40.9299 8.78 40.9299C3.93094 40.9299 0 44.8609 0 49.7099C0 54.559 3.93094 58.4899 8.78 58.4899Z" fill="#384EF8"/>
<path d="M29.4714 17.56C34.3205 17.56 38.2514 13.6291 38.2514 8.78C38.2514 3.93094 34.3205 0 29.4714 0C24.6223 0 20.6914 3.93094 20.6914 8.78C20.6914 13.6291 24.6223 17.56 29.4714 17.56Z" fill="#384EF8"/>
<path d="M29.4714 38.03C34.3205 38.03 38.2514 34.099 38.2514 29.25C38.2514 24.4009 34.3205 20.47 29.4714 20.47C24.6223 20.47 20.6914 24.4009 20.6914 29.25C20.6914 34.099 24.6223 38.03 29.4714 38.03Z" fill="#384EF8"/>
<path d="M29.4714 58.4899C34.3205 58.4899 38.2514 54.559 38.2514 49.7099C38.2514 44.8609 34.3205 40.9299 29.4714 40.9299C24.6223 40.9299 20.6914 44.8609 20.6914 49.7099C20.6914 54.559 24.6223 58.4899 29.4714 58.4899Z" fill="#384EF8"/>
<path d="M50.1706 17.56C55.0197 17.56 58.9506 13.6291 58.9506 8.78C58.9506 3.93094 55.0197 0 50.1706 0C45.3216 0 41.3906 3.93094 41.3906 8.78C41.3906 13.6291 45.3216 17.56 50.1706 17.56Z" fill="#384EF8"/>
<path d="M50.1706 38.03C55.0197 38.03 58.9506 34.099 58.9506 29.25C58.9506 24.4009 55.0197 20.47 50.1706 20.47C45.3216 20.47 41.3906 24.4009 41.3906 29.25C41.3906 34.099 45.3216 38.03 50.1706 38.03Z" fill="#384EF8"/>
<path d="M50.1706 58.4899C55.0197 58.4899 58.9506 54.559 58.9506 49.7099C58.9506 44.8609 55.0197 40.9299 50.1706 40.9299C45.3216 40.9299 41.3906 44.8609 41.3906 49.7099C41.3906 54.559 45.3216 58.4899 50.1706 58.4899Z" fill="#384EF8"/>
</g>
<defs>
<clipPath id="clip0_1458_7">
<rect width="58.94" height="58.49" fill="white"/>
</clipPath>
</defs>
</svg>
