<svg width="59" height="61" viewBox="0 0 59 61" fill="none" xmlns="http://www.w3.org/2000/svg">
<g clip-path="url(#clip0_1458_3)">
<path d="M0 39.48C0.313333 39.3 6.31333 36.87 18 32.19L22.19 30.44C20.648 29.5974 19.0433 28.8753 17.39 28.28L0.13 20.65C1.56333 17.9833 3.74667 14.2933 6.68 9.58C7.36 10.03 9.21 11.44 12.25 13.8C15.29 16.16 17.14 17.64 17.82 18.22C18.9158 19.2125 20.0896 20.1154 21.33 20.92C22.8554 21.8833 24.3183 22.9421 25.71 24.09C25.6405 22.9832 25.507 21.8813 25.31 20.79C24.8478 18.3127 24.5538 15.807 24.43 13.29C24.3433 12.0433 23.8933 7.63667 23.08 0.07C25.33 0 27.13 0 28.48 0L36.48 0.07L32.87 23.76C37.01 20.6467 40.1367 18.3733 42.25 16.94C43.6433 15.9867 46.2733 14.1433 50.14 11.41C50.7953 10.772 51.4972 10.1837 52.24 9.65C53.9 12.4433 56.0367 16.2267 58.65 21C57.43 21.58 55.26 22.51 52.13 23.77C49 25.03 44.13 27.18 37.46 30.24C38.2693 30.6013 39.0572 31.0087 39.82 31.46C41.4079 32.2483 43.0525 32.9168 44.74 33.46L51.63 36.37C54.1041 37.3414 56.4952 38.5119 58.78 39.87C58.3267 40.6767 57.63 42.01 56.69 43.87C55.5148 46.3416 54.1786 48.7334 52.69 51.03C51.5633 50.3433 49.5 48.8567 46.5 46.57C43.5 44.2833 38.9333 41.0933 32.8 37L35.36 55.49C35.63 57.43 35.84 59.05 35.97 60.35H33.34C28.16 60.35 24.6267 60.33 22.74 60.29L25.74 36.87C24.3552 37.7744 23.0199 38.7525 21.74 39.8C20.7867 40.6 19.14 41.7967 16.8 43.39C15.4667 44.29 12.05 46.81 6.55 50.95C4.62103 46.9869 2.43296 43.1553 0 39.48Z" fill="#384EF8"/>
</g>
<defs>
<clipPath id="clip0_1458_3">
<rect width="58.78" height="60.33" fill="white"/>
</clipPath>
</defs>
</svg>
