<svg width="65" height="65" viewBox="0 0 65 65" fill="none" xmlns="http://www.w3.org/2000/svg">
<g clip-path="url(#clip0_1458_23)">
<path d="M62.2686 32.08C62.2293 38.2535 60.3187 44.2699 56.7891 49.335C53.2594 54.4 48.2767 58.2756 42.4986 60.45C36.6136 62.5684 30.2201 62.8287 24.1824 61.1959C18.1446 59.563 12.7538 56.1157 8.73864 51.32C4.78845 46.4755 2.42322 40.5337 1.9635 34.2999C1.50379 28.066 2.97182 21.8415 6.16864 16.47C9.41335 11.1679 14.2006 6.9839 19.8893 4.47822C25.5781 1.97254 31.8966 1.26487 37.9986 2.44999C44.8486 3.81592 51.0124 7.51631 55.4384 12.9198C59.8645 18.3233 62.2785 25.0952 62.2686 32.08C62.3366 32.2765 62.4642 32.4469 62.6336 32.5675C62.803 32.6881 63.0057 32.7529 63.2136 32.7529C63.4216 32.7529 63.6243 32.6881 63.7937 32.5675C63.9631 32.4469 64.0906 32.2765 64.1586 32.08C64.1072 25.4962 62.056 19.0834 58.2771 13.6919C54.4982 8.30028 49.1699 4.18446 42.9986 1.88999C36.7484 -0.372648 29.9501 -0.640401 23.5412 1.12365C17.1324 2.8877 11.4287 6.59666 7.21669 11.7391C3.00469 16.8814 0.491868 23.204 0.0247427 29.8347C-0.442383 36.4655 1.1592 43.0779 4.60864 48.76C8.0677 54.3633 13.1501 58.7813 19.1804 61.4267C25.2107 64.0721 31.9033 64.8196 38.3686 63.57C44.7773 62.2459 50.6342 59.0104 55.1669 54.2903C59.6996 49.5702 62.6952 43.5871 63.7586 37.13C64.0122 35.4583 64.1459 33.7707 64.1586 32.08C64.0906 31.8835 63.9631 31.7131 63.7937 31.5925C63.6243 31.4719 63.4216 31.4071 63.2136 31.4071C63.0057 31.4071 62.803 31.4719 62.6336 31.5925C62.4642 31.7131 62.3366 31.8835 62.2686 32.08Z" fill="#384EF8"/>
<path d="M23.9269 29.1699C25.7936 29.1699 27.3069 25.0331 27.3069 19.9299C27.3069 14.8268 25.7936 10.6899 23.9269 10.6899C22.0602 10.6899 20.5469 14.8268 20.5469 19.9299C20.5469 25.0331 22.0602 29.1699 23.9269 29.1699Z" fill="#384EF8"/>
<path d="M23.9269 29.6799C21.4069 29.6799 20.0469 24.6799 20.0469 19.9299C20.0469 15.1799 21.4069 10.1899 23.9269 10.1899C26.4469 10.1899 27.8069 15.1899 27.8069 19.9299C27.8069 24.6699 26.4469 29.6799 23.9269 29.6799ZM23.9269 11.1899C22.5669 11.1899 21.0469 14.7799 21.0469 19.9299C21.0469 25.0799 22.5669 28.6799 23.9269 28.6799C25.2869 28.6799 26.8069 25.0899 26.8069 19.9299C26.8069 14.7699 25.2869 11.1899 23.9269 11.1899Z" fill="#384EF8"/>
<path d="M40.8683 29.1699C42.735 29.1699 44.2483 25.0331 44.2483 19.9299C44.2483 14.8268 42.735 10.6899 40.8683 10.6899C39.0016 10.6899 37.4883 14.8268 37.4883 19.9299C37.4883 25.0331 39.0016 29.1699 40.8683 29.1699Z" fill="#384EF8"/>
<path d="M40.8683 29.6799C38.3483 29.6799 36.9883 24.6799 36.9883 19.9299C36.9883 15.1799 38.3483 10.1899 40.8683 10.1899C43.3883 10.1899 44.7383 15.1899 44.7383 19.9299C44.7383 24.6699 43.3883 29.6799 40.8683 29.6799ZM40.8683 11.1899C39.5083 11.1899 37.9883 14.7799 37.9883 19.9299C37.9883 25.0799 39.5083 28.6799 40.8683 28.6799C42.2283 28.6799 43.7383 25.0899 43.7383 19.9299C43.7383 14.7699 42.2283 11.1899 40.8683 11.1899Z" fill="#384EF8"/>
<path d="M52.778 33.5999C52.778 34.1332 52.758 34.6632 52.718 35.1899C52.718 35.4399 52.718 35.6899 52.638 35.9399V36.1199C52.638 36.1199 52.638 36.4199 52.568 36.5599C52.3905 37.5796 52.1296 38.5829 51.788 39.5599C51.708 39.7799 51.628 39.9999 51.538 40.2199L51.478 40.3799C51.478 40.3799 51.378 40.6299 51.428 40.5099V40.5999L51.338 40.7999C51.128 41.2799 50.888 41.7399 50.638 42.1999C50.388 42.6599 50.148 43.0599 49.878 43.4699C49.738 43.6799 49.608 43.8799 49.458 44.0799C49.308 44.2799 49.328 44.2699 49.258 44.3699L49.128 44.5399C49.028 44.6799 49.128 44.5399 49.128 44.5899C48.5173 45.3878 47.8488 46.1399 47.128 46.8399C46.748 47.2099 46.348 47.5599 45.938 47.8999L45.658 48.1199L45.518 48.2299L44.868 48.6999C43.9546 49.322 42.9952 49.8736 41.998 50.3499C41.528 50.5899 40.998 50.8099 40.558 51.0199C40.678 50.9699 40.408 51.0799 40.558 51.0199L40.388 51.0899L39.998 51.2399L39.218 51.5199C35.0789 52.9237 30.6204 53.0905 26.388 51.9999C25.868 51.8699 25.388 51.7099 24.828 51.5299L24.088 51.2699L23.748 51.1399L23.578 51.0699H23.458C22.4831 50.6508 21.5376 50.1663 20.628 49.6199C20.198 49.3599 19.768 49.0799 19.358 48.7899L18.808 48.3899L18.688 48.2999L18.558 48.1899L18.248 47.9299C17.4425 47.2556 16.6902 46.52 15.998 45.7299L15.508 45.1699L15.288 44.8999C15.2569 44.8491 15.22 44.8021 15.178 44.7599C14.998 44.5299 15.288 44.9099 15.118 44.6799C14.818 44.2799 14.528 43.8799 14.258 43.4699C13.7071 42.6131 13.2192 41.7174 12.798 40.7899L12.658 40.4699C12.708 40.5799 12.548 40.2199 12.658 40.4699L12.598 40.2999C12.498 40.0599 12.408 39.8099 12.318 39.5699C12.158 39.0799 12.008 38.5699 11.878 38.0999C11.748 37.6299 11.638 37.0999 11.548 36.5799C11.548 36.4699 11.548 36.3499 11.498 36.2299C11.448 36.1099 11.438 35.8099 11.498 35.9999C11.498 35.7299 11.438 35.4599 11.418 35.1999C11.418 34.6799 11.358 34.1999 11.348 33.6499C11.3486 33.3964 11.2529 33.1521 11.0802 32.9664C10.9076 32.7808 10.6709 32.6676 10.418 32.6499C10.1628 32.6494 9.91716 32.7465 9.73126 32.9213C9.54535 33.096 9.43328 33.3352 9.41797 33.5899C9.4365 37.9676 10.8909 42.2184 13.558 45.6899C16.3025 49.235 20.0365 51.8868 24.288 53.3099C28.7787 54.8203 33.6121 54.9905 38.198 53.7999C42.5274 52.6774 46.4343 50.3138 49.438 46.9999C52.3822 43.7396 54.1924 39.6141 54.598 35.2399C54.598 34.6999 54.668 34.1599 54.668 33.6099C54.6439 33.376 54.5339 33.1594 54.3594 33.0019C54.1848 32.8444 53.9581 32.7572 53.723 32.7572C53.4879 32.7572 53.2611 32.8444 53.0866 33.0019C52.912 33.1594 52.8021 33.376 52.778 33.6099V33.5999Z" fill="#384EF8"/>
<path d="M8.67735 34.84C8.34735 35.11 8.67735 34.84 8.79735 34.78L9.12735 34.61C9.34735 34.5 9.02735 34.61 9.18735 34.61L9.42735 34.52C10.3187 34.2357 11.2727 34.2114 12.1774 34.45C12.3847 34.4848 12.5977 34.4415 12.775 34.3285C12.9523 34.2154 13.0814 34.0406 13.1374 33.8379C13.1934 33.6352 13.1722 33.419 13.078 33.231C12.9838 33.0429 12.8232 32.8965 12.6274 32.82C11.7589 32.5726 10.8462 32.5214 9.95551 32.6701C9.0648 32.8188 8.21831 33.1638 7.47735 33.68C7.32161 33.8389 7.23438 34.0525 7.23438 34.275C7.23438 34.4975 7.32161 34.7111 7.47735 34.87C7.63745 35.0234 7.85062 35.1091 8.07235 35.1091C8.29409 35.1091 8.50725 35.0234 8.66735 34.87L8.67735 34.84Z" fill="#384EF8"/>
<path d="M56.4805 33.42C55.7415 32.9078 54.898 32.5659 54.011 32.4189C53.1239 32.272 52.2152 32.3236 51.3505 32.57C50.2905 32.81 50.7305 34.44 51.7905 34.2C52.6918 33.9617 53.6425 33.986 54.5305 34.27C54.6159 34.294 54.6995 34.3241 54.7805 34.36C54.9305 34.36 54.6405 34.28 54.8505 34.36C54.9644 34.4087 55.0747 34.4655 55.1805 34.53C55.2905 34.59 55.6005 34.84 55.2905 34.59C55.4523 34.7441 55.6671 34.83 55.8905 34.83C56.1139 34.83 56.3287 34.7441 56.4905 34.59C56.5688 34.512 56.631 34.4193 56.6733 34.3172C56.7157 34.2151 56.7376 34.1056 56.7376 33.995C56.7376 33.8845 56.7157 33.775 56.6733 33.6729C56.631 33.5708 56.5688 33.4781 56.4905 33.4L56.4805 33.42Z" fill="#384EF8"/>
</g>
<defs>
<clipPath id="clip0_1458_23">
<rect width="64.16" height="64.17" fill="white"/>
</clipPath>
</defs>
</svg>
