<svg width="50" height="60" viewBox="0 0 50 60" fill="none" xmlns="http://www.w3.org/2000/svg">
<g clip-path="url(#clip0_1458_19)">
<path d="M23.0018 0.729981C21.3118 6.72998 24.0618 11.27 20.2518 20.39C20.1817 20.583 20.0539 20.7498 19.8857 20.8677C19.7175 20.9856 19.5171 21.0488 19.3118 21.0488C19.1064 21.0488 18.906 20.9856 18.7378 20.8677C18.5696 20.7498 18.4418 20.583 18.3718 20.39C17.0918 17.39 17.2118 12.39 14.1018 10.93C13.9316 10.8473 13.7414 10.8146 13.5533 10.8357C13.3653 10.8568 13.1871 10.9308 13.0395 11.0491C12.8918 11.1675 12.7808 11.3253 12.7192 11.5042C12.6577 11.6831 12.6481 11.8759 12.6918 12.06C12.8357 13.162 12.7332 14.2823 12.3918 15.34C11.9418 18.28 11.0318 20.99 11.8218 24.34C11.9057 24.5696 11.9027 24.8221 11.8132 25.0496C11.7236 25.2772 11.5538 25.464 11.3358 25.5749C11.1179 25.6857 10.8669 25.7128 10.6302 25.6511C10.3936 25.5894 10.1878 25.4431 10.0518 25.24C9.10175 24.06 8.43175 22.77 7.47175 21.59C7.34638 21.4074 7.16392 21.2715 6.953 21.2038C6.74209 21.1361 6.51466 21.1403 6.30641 21.2158C6.09816 21.2914 5.92088 21.4339 5.8024 21.6211C5.68391 21.8082 5.63092 22.0294 5.65175 22.25C5.74175 26.08 5.41176 31.65 8.10176 37.25C8.20526 37.4196 8.25587 37.6163 8.24711 37.8148C8.23836 38.0134 8.17064 38.2048 8.0526 38.3647C7.93456 38.5246 7.77155 38.6457 7.58438 38.7126C7.39721 38.7794 7.19437 38.7889 7.00175 38.74C5.10175 38.19 3.75175 37.14 1.75175 35.27C1.59605 35.1026 1.38769 34.9936 1.16139 34.9612C0.935081 34.9287 0.704496 34.9748 0.508047 35.0918C0.311598 35.2087 0.161147 35.3894 0.0817596 35.6038C0.00237176 35.8182 -0.00115921 36.0533 0.0717549 36.27C4.35176 62 22.7918 60.85 23.3518 58.94C24.2718 55.85 14.3518 57.71 11.2618 47.85C12.2018 46.45 11.1118 48.93 17.2618 49.72C17.4573 49.7564 17.6594 49.7337 17.842 49.6547C18.0246 49.5757 18.1795 49.4441 18.2868 49.2766C18.3942 49.1091 18.4492 48.9134 18.4447 48.7144C18.4402 48.5155 18.3765 48.3225 18.2618 48.16C15.5618 43.8 15.2618 42.9 15.5918 41.33C15.6223 41.1114 15.7244 40.909 15.882 40.7544C16.0396 40.5999 16.244 40.5018 16.4632 40.4756C16.6824 40.4493 16.9041 40.4963 17.0938 40.6093C17.2834 40.7222 17.4304 40.8948 17.5118 41.1C17.9318 41.98 18.5118 42.6 20.6818 43.6C20.8422 43.6798 21.0211 43.7151 21.1998 43.7021C21.3785 43.6891 21.5505 43.6283 21.6976 43.5261C21.8448 43.4239 21.9618 43.284 22.0364 43.1211C22.1111 42.9582 22.1405 42.7782 22.1218 42.6C21.6118 38.23 24.2418 34.7 24.5518 29.96C24.5583 29.7635 24.6226 29.5733 24.7367 29.4132C24.8507 29.2531 25.0094 29.1302 25.1929 29.0598C25.3765 28.9893 25.5767 28.9746 25.7686 29.0173C25.9604 29.06 26.1355 29.1583 26.2718 29.3C28.0018 31 30.1318 33.48 30.3318 42C30.3303 42.1941 30.3853 42.3844 30.4901 42.5477C30.5949 42.7111 30.745 42.8404 30.922 42.9199C31.0991 42.9994 31.2954 43.0257 31.4872 42.9955C31.6789 42.9653 31.8577 42.88 32.0018 42.75C33.5618 41.48 34.3718 41.58 35.1518 40.83C35.2977 40.6795 35.4873 40.5788 35.6937 40.5419C35.9001 40.5051 36.1128 40.534 36.3018 40.6247C36.4908 40.7153 36.6466 40.8631 36.7471 41.0471C36.8476 41.231 36.8877 41.442 36.8618 41.65C36.6553 44.1985 35.5988 46.6038 33.8618 48.48C33.7275 48.6306 33.642 48.8182 33.6164 49.0183C33.5907 49.2184 33.6262 49.4216 33.7182 49.6011C33.8101 49.7807 33.9542 49.9282 34.1315 50.0244C34.3089 50.1206 34.5111 50.1609 34.7118 50.14C35.42 50.0884 36.1189 49.9472 36.7918 49.72C36.9823 49.6532 37.1885 49.6457 37.3834 49.6984C37.5783 49.751 37.7527 49.8615 37.8836 50.0151C38.0145 50.1688 38.0959 50.3585 38.117 50.5592C38.1381 50.76 38.0979 50.9625 38.0018 51.14C37.3118 52.66 36.8818 53.96 33.0018 57.07C32.811 57.1991 32.6707 57.3901 32.6045 57.6107C32.5383 57.8314 32.5503 58.0681 32.6385 58.2809C32.7267 58.4937 32.8856 58.6695 33.0884 58.7787C33.2913 58.8878 33.5256 58.9236 33.7518 58.88C42.4818 57.79 48.3418 51.69 49.2218 39.88C49.2426 39.6793 49.2023 39.4771 49.1062 39.2998C49.01 39.1224 48.8624 38.9783 48.6829 38.8864C48.5033 38.7945 48.3002 38.759 48.1001 38.7846C47.9 38.8102 47.7123 38.8958 47.5618 39.03C46.8962 39.5319 46.1484 39.9143 45.3518 40.16C45.1521 40.2392 44.9323 40.252 44.7248 40.1965C44.5173 40.141 44.3332 40.0202 44.1997 39.8519C44.0662 39.6837 43.9904 39.4769 43.9836 39.2622C43.9768 39.0476 44.0392 38.8364 44.1618 38.66C45.4809 36.5952 46.335 34.2682 46.6648 31.8403C46.9946 29.4124 46.7923 26.9418 46.0718 24.6C46.0206 24.4074 45.9131 24.2345 45.763 24.1035C45.6129 23.9724 45.427 23.8892 45.2293 23.8645C45.0316 23.8398 44.831 23.8747 44.6533 23.9647C44.4755 24.0548 44.3287 24.1959 44.2318 24.37C43.419 25.8008 42.4091 27.1103 41.2318 28.26C41.0761 28.4274 40.8677 28.5364 40.6414 28.5688C40.4151 28.6012 40.1845 28.5551 39.988 28.4382C39.7916 28.3213 39.6411 28.1406 39.5618 27.9262C39.4824 27.7118 39.4788 27.4767 39.5518 27.26C39.9886 25.5737 40.1407 23.8263 40.0018 22.09C40.147 19.3478 39.6541 16.6094 38.5618 14.09C38.4826 13.8711 38.3297 13.6867 38.1292 13.5685C37.9287 13.4503 37.6933 13.4057 37.4635 13.4424C37.2337 13.4792 37.0239 13.5949 36.8703 13.7697C36.7166 13.9445 36.6287 14.1674 36.6218 14.4C36.0518 18.76 35.6218 21.4 33.3118 22.79C33.1494 22.8919 32.9611 22.9451 32.7694 22.9431C32.5776 22.941 32.3905 22.8839 32.2303 22.7785C32.0702 22.6731 31.9436 22.5239 31.8659 22.3487C31.7881 22.1734 31.7624 21.9795 31.7918 21.79C32.2418 18.61 32.0518 16.55 30.1018 12.38C28.2318 8.37998 26.1018 4.43998 24.9718 0.719981C24.93 0.488411 24.8079 0.278984 24.627 0.128542C24.446 -0.0219001 24.2179 -0.103721 23.9826 -0.102526C23.7473 -0.101332 23.5199 -0.0171989 23.3405 0.135072C23.1611 0.287343 23.0412 0.497999 23.0018 0.729981Z" fill="#384EF8"/>
</g>
<defs>
<clipPath id="clip0_1458_19">
<rect width="49.29" height="59.82" fill="white"/>
</clipPath>
</defs>
</svg>
